G04 DipTrace 3.3.1.1*
G04 BottomSilk.gbo*
%MOIN*%
G04 #@! TF.FileFunction,Legend,Bot*
G04 #@! TF.Part,Single*
%ADD10C,0.009843*%
%ADD37C,0.002187*%
%FSLAX26Y26*%
G04*
G70*
G90*
G75*
G01*
G04 BotSilk*
%LPD*%
X1099951Y743700D2*
D10*
X987451D1*
Y1356200D1*
X1099951D1*
Y743700D1*
G36*
D2*
X987451D1*
Y856216D1*
X1099951D1*
Y743700D1*
G37*
X1126411Y1026611D2*
D37*
Y1018011D1*
X1125438Y1015137D1*
X1124488Y1014164D1*
X1122587Y1013213D1*
X1120663D1*
X1118762Y1014164D1*
X1117789Y1015137D1*
X1116838Y1018011D1*
Y1026611D1*
X1136934D1*
X1126411Y1019912D2*
X1136934Y1013213D1*
X1119712Y995442D2*
X1117789Y997343D1*
X1116838Y1000217D1*
Y1004042D1*
X1117789Y1006916D1*
X1119712Y1008839D1*
X1121614D1*
X1123537Y1007866D1*
X1124488Y1006916D1*
X1125438Y1005014D1*
X1127362Y999266D1*
X1128312Y997343D1*
X1129285Y996392D1*
X1131186Y995442D1*
X1134060D1*
X1135962Y997343D1*
X1136934Y1000217D1*
Y1004041D1*
X1135962Y1006915D1*
X1134060Y1008839D1*
X1116838Y984369D2*
X1136934Y984368D1*
X1116838Y991067D2*
Y977670D1*
X1136934Y1217564D2*
X1116838D1*
X1136934Y1225213D1*
X1116838Y1232862D1*
X1136934D1*
X1116838Y1207441D2*
X1117789Y1209365D1*
X1119712Y1211266D1*
X1121614Y1212239D1*
X1124488Y1213189D1*
X1129285D1*
X1132137Y1212239D1*
X1134060Y1211266D1*
X1135962Y1209365D1*
X1136934Y1207441D1*
Y1203617D1*
X1135962Y1201715D1*
X1134060Y1199792D1*
X1132137Y1198841D1*
X1129285Y1197891D1*
X1124488D1*
X1121614Y1198841D1*
X1119712Y1199792D1*
X1117789Y1201715D1*
X1116838Y1203617D1*
Y1207441D1*
X1119712Y1180119D2*
X1117789Y1182020D1*
X1116838Y1184894D1*
Y1188719D1*
X1117789Y1191593D1*
X1119712Y1193516D1*
X1121614D1*
X1123537Y1192544D1*
X1124488Y1191593D1*
X1125438Y1189692D1*
X1127362Y1183944D1*
X1128312Y1182020D1*
X1129285Y1181070D1*
X1131186Y1180119D1*
X1134060D1*
X1135962Y1182020D1*
X1136934Y1184894D1*
Y1188719D1*
X1135962Y1191593D1*
X1134060Y1193516D1*
X1116838Y1175745D2*
X1136934D1*
X1136933Y1312772D2*
X1116837Y1312773D1*
X1136933Y1320422D1*
X1116837Y1328071D1*
X1136933D1*
X1116837Y1308398D2*
X1136933D1*
X1119711Y1290626D2*
X1117788Y1292528D1*
X1116837Y1295402D1*
Y1299226D1*
X1117788Y1302100D1*
X1119711Y1304024D1*
X1121612D1*
X1123536Y1303051D1*
X1124486Y1302100D1*
X1125437Y1300199D1*
X1127360Y1294451D1*
X1128311Y1292528D1*
X1129284Y1291577D1*
X1131185Y1290626D1*
X1134059D1*
X1135960Y1292528D1*
X1136933Y1295402D1*
Y1299226D1*
X1135960Y1302100D1*
X1134059Y1304024D1*
X1116837Y1280504D2*
X1117788Y1282427D1*
X1119711Y1284329D1*
X1121612Y1285301D1*
X1124486Y1286252D1*
X1129284D1*
X1132136Y1285301D1*
X1134059Y1284328D1*
X1135960Y1282427D1*
X1136933Y1280504D1*
Y1276679D1*
X1135960Y1274778D1*
X1134059Y1272855D1*
X1132136Y1271904D1*
X1129284Y1270953D1*
X1124486D1*
X1121612Y1271904D1*
X1119711Y1272855D1*
X1117788Y1274778D1*
X1116837Y1276679D1*
Y1280504D1*
X1119711Y1114674D2*
X1117788Y1116576D1*
X1116837Y1119450D1*
Y1123274D1*
X1117788Y1126148D1*
X1119711Y1128072D1*
X1121612D1*
X1123536Y1127099D1*
X1124486Y1126148D1*
X1125437Y1124247D1*
X1127360Y1118499D1*
X1128311Y1116576D1*
X1129284Y1115625D1*
X1131185Y1114674D1*
X1134059D1*
X1135960Y1116576D1*
X1136933Y1119450D1*
Y1123274D1*
X1135960Y1126148D1*
X1134059Y1128072D1*
X1121612Y1095952D2*
X1119711Y1096903D1*
X1117788Y1098826D1*
X1116837Y1100727D1*
Y1104552D1*
X1117788Y1106475D1*
X1119711Y1108377D1*
X1121612Y1109349D1*
X1124486Y1110300D1*
X1129284D1*
X1132136Y1109349D1*
X1134059Y1108377D1*
X1135960Y1106475D1*
X1136933Y1104552D1*
Y1100727D1*
X1135960Y1098826D1*
X1134059Y1096903D1*
X1132136Y1095952D1*
X1116837Y1091578D2*
X1136933D1*
X1116837Y1078180D2*
X1130235Y1091578D1*
X1125437Y1086802D2*
X1136933Y1078180D1*
X1120825Y912266D2*
X1118924Y913216D1*
X1117000Y915140D1*
X1116050Y917041D1*
Y920866D1*
X1117000Y922789D1*
X1118924Y924690D1*
X1120825Y925663D1*
X1123699Y926614D1*
X1128496D1*
X1131348Y925663D1*
X1133272Y924690D1*
X1135173Y922789D1*
X1136146Y920866D1*
Y917041D1*
X1135173Y915140D1*
X1133272Y913216D1*
X1131348Y912266D1*
X1128496D1*
Y917041D1*
X1116050Y894494D2*
X1136146D1*
X1116050Y907891D1*
X1136146D1*
X1116050Y890120D2*
X1136146D1*
Y883421D1*
X1135173Y880547D1*
X1133272Y878624D1*
X1131348Y877673D1*
X1128496Y876722D1*
X1123699D1*
X1120825Y877673D1*
X1118924Y878624D1*
X1117000Y880547D1*
X1116050Y883421D1*
Y890120D1*
Y826614D2*
X1136146Y818965D1*
X1116050Y811315D1*
X1120825Y792593D2*
X1118924Y793544D1*
X1117000Y795467D1*
X1116050Y797368D1*
Y801193D1*
X1117000Y803116D1*
X1118924Y805018D1*
X1120825Y805990D1*
X1123699Y806941D1*
X1128496D1*
X1131348Y805990D1*
X1133272Y805018D1*
X1135173Y803116D1*
X1136146Y801193D1*
Y797368D1*
X1135173Y795467D1*
X1133272Y793544D1*
X1131348Y792593D1*
X1120825Y773871D2*
X1118924Y774821D1*
X1117000Y776745D1*
X1116050Y778646D1*
Y782471D1*
X1117000Y784394D1*
X1118924Y786295D1*
X1120825Y787268D1*
X1123699Y788219D1*
X1128496D1*
X1131348Y787268D1*
X1133272Y786295D1*
X1135173Y784394D1*
X1136146Y782471D1*
Y778646D1*
X1135173Y776745D1*
X1133272Y774821D1*
X1131348Y773871D1*
M02*
