M48
INCH
T01C0.0236
T02C0.0354
T03C0.1181
%
T02
X+005187Y+008500
X+005187Y+009484
X+005187Y+010468
X+005187Y+011452
X+005187Y+012437
X+015687Y+012437
X+015687Y+011453
X+015687Y+010469
X+015687Y+009484
X+015687Y+008500
T03
X+005687Y+015312
X+015187Y+015312
X+015187Y+005562
X+005687Y+005562
T01
X+013187Y+010687
X+013187Y+010125
X+011500Y+010687
X+009187Y+010187
X+007750Y+010187
X+007750Y+010687
X+009250Y+010750
X+011625Y+010187
X+015000Y+010812
X+005937Y+009937
T02
X+010437Y+008000
X+010437Y+009000
X+010437Y+010000
X+010437Y+011000
X+010437Y+012000
X+010437Y+013000
X+010937Y+005500
X+009953Y+005500
T00
M30
