G04 DipTrace 3.3.1.1*
G04 TopSilk.gto*
%MOIN*%
G04 #@! TF.FileFunction,Legend,Top*
G04 #@! TF.Part,Single*
%ADD10C,0.009843*%
%ADD19C,0.005*%
%ADD34C,0.004632*%
%ADD35C,0.003281*%
%ADD36C,0.004374*%
%ADD38C,0.007655*%
%FSLAX26Y26*%
G04*
G70*
G90*
G75*
G01*
G04 TopSilk*
%LPD*%
X400591Y786963D2*
D10*
X656496D1*
Y1306638D1*
X400591D1*
Y786963D1*
G36*
X606211Y784284D2*
X656189D1*
Y1309317D1*
X606211D1*
Y784284D1*
G37*
X1686811Y1306688D2*
D10*
X1430906D1*
Y787013D1*
X1686811D1*
Y1306688D1*
G36*
X1481191Y1309367D2*
X1431213D1*
Y784334D1*
X1481191D1*
Y1309367D1*
G37*
X1187465Y1306201D2*
D10*
X899937D1*
Y789017D1*
X1187465D1*
Y1306201D1*
X926299Y1265576D2*
X926336Y1266667D1*
X926445Y1267753D1*
X926626Y1268829D1*
X926878Y1269888D1*
X927201Y1270927D1*
X927592Y1271939D1*
X928049Y1272921D1*
X928571Y1273866D1*
X929155Y1274772D1*
X929797Y1275632D1*
X930496Y1276444D1*
X931247Y1277202D1*
X932046Y1277904D1*
X932890Y1278546D1*
X933776Y1279125D1*
X934697Y1279637D1*
X935651Y1280082D1*
X936631Y1280455D1*
X937635Y1280756D1*
X938655Y1280983D1*
X939689Y1281135D1*
X940730Y1281211D1*
X941774D1*
X942815Y1281135D1*
X943848Y1280983D1*
X944869Y1280756D1*
X945873Y1280455D1*
X946853Y1280082D1*
X947807Y1279637D1*
X948728Y1279125D1*
X949613Y1278546D1*
X950458Y1277904D1*
X951257Y1277202D1*
X952008Y1276444D1*
X952706Y1275632D1*
X953349Y1274772D1*
X953933Y1273866D1*
X954454Y1272921D1*
X954912Y1271939D1*
X955303Y1270927D1*
X955625Y1269888D1*
X955878Y1268829D1*
X956059Y1267753D1*
X956168Y1266667D1*
X956205Y1265576D1*
X956168Y1264485D1*
X956059Y1263399D1*
X955878Y1262323D1*
X955625Y1261264D1*
X955303Y1260225D1*
X954912Y1259213D1*
X954454Y1258231D1*
X953933Y1257286D1*
X953349Y1256380D1*
X952706Y1255520D1*
X952008Y1254708D1*
X951257Y1253950D1*
X950458Y1253248D1*
X949613Y1252606D1*
X948728Y1252027D1*
X947807Y1251515D1*
X946853Y1251070D1*
X945873Y1250697D1*
X944869Y1250396D1*
X943848Y1250169D1*
X942815Y1250017D1*
X941774Y1249941D1*
X940730D1*
X939689Y1250017D1*
X938655Y1250169D1*
X937635Y1250396D1*
X936631Y1250697D1*
X935651Y1251070D1*
X934697Y1251515D1*
X933776Y1252027D1*
X932890Y1252606D1*
X932046Y1253248D1*
X931247Y1253950D1*
X930496Y1254708D1*
X929797Y1255520D1*
X929155Y1256380D1*
X928571Y1257286D1*
X928049Y1258231D1*
X927592Y1259213D1*
X927201Y1260225D1*
X926878Y1261264D1*
X926626Y1262323D1*
X926445Y1263399D1*
X926336Y1264485D1*
X926299Y1265576D1*
X681028Y1481650D2*
D19*
X775811Y1593680D1*
X780760Y1593669D1*
Y1578071D1*
X747462Y1537980D1*
X780740D1*
Y1525790D1*
X737245D1*
X700341Y1481627D1*
X681028Y1481650D1*
X829204Y1580433D2*
X803519Y1580410D1*
X829344Y1538610D2*
X803660Y1538486D1*
X803219Y1593680D2*
X829725Y1593624D1*
X803319Y1526014D2*
X824636Y1525958D1*
X824476Y1525947D2*
X861920Y1481594D1*
X881374D1*
X839321Y1529894D1*
X828963Y1593613D2*
G02X839361Y1529995I1218J-32459D01*
G01*
X829164Y1580433D2*
G02X829003Y1538587I-2607J-20913D01*
G01*
X788073Y1481312D2*
Y1593647D1*
X788173D2*
X804822D1*
X803479Y1580410D2*
Y1538441D1*
Y1526026D2*
Y1481222D1*
X803339D2*
X788113D1*
X1169488Y421678D2*
D10*
X919488D1*
Y678223D1*
X1169488D1*
Y421678D1*
G36*
Y621681D2*
X919488D1*
Y677915D1*
X1169488D1*
Y621681D1*
G37*
X1310947Y750157D2*
D34*
X1309521Y753009D1*
X1306636Y755894D1*
X1303784Y757320D1*
X1298047D1*
X1295162Y755894D1*
X1292310Y753009D1*
X1290851Y750157D1*
X1289425Y745846D1*
Y738650D1*
X1290851Y734372D1*
X1292310Y731487D1*
X1295162Y728635D1*
X1298047Y727176D1*
X1303784D1*
X1306636Y728635D1*
X1309521Y731487D1*
X1310947Y734372D1*
X1320211Y751550D2*
X1323096Y753009D1*
X1327407Y757287D1*
Y727176D1*
X516395Y1402469D2*
X514969Y1405321D1*
X512084Y1408206D1*
X509232Y1409632D1*
X503495D1*
X500610Y1408206D1*
X497758Y1405321D1*
X496299Y1402469D1*
X494873Y1398158D1*
Y1390962D1*
X496299Y1386684D1*
X497758Y1383799D1*
X500610Y1380947D1*
X503495Y1379488D1*
X509232D1*
X512084Y1380947D1*
X514969Y1383799D1*
X516395Y1386684D1*
X545754Y1409632D2*
Y1379488D1*
X525658Y1409632D1*
Y1379488D1*
X555018Y1403862D2*
X557903Y1405321D1*
X562214Y1409599D1*
Y1379488D1*
X1540260Y1402519D2*
X1538834Y1405371D1*
X1535949Y1408256D1*
X1533097Y1409682D1*
X1527360D1*
X1524475Y1408256D1*
X1521623Y1405371D1*
X1520164Y1402519D1*
X1518738Y1398208D1*
Y1391012D1*
X1520164Y1386734D1*
X1521623Y1383849D1*
X1524475Y1380997D1*
X1527360Y1379538D1*
X1533097D1*
X1535949Y1380997D1*
X1538834Y1383849D1*
X1540260Y1386734D1*
X1569619Y1409682D2*
Y1379538D1*
X1549523Y1409682D1*
Y1379538D1*
X1580342Y1402486D2*
Y1403912D1*
X1581768Y1406797D1*
X1583194Y1408223D1*
X1586079Y1409649D1*
X1591816D1*
X1594668Y1408223D1*
X1596094Y1406797D1*
X1597553Y1403912D1*
Y1401060D1*
X1596094Y1398175D1*
X1593242Y1393897D1*
X1578883Y1379538D1*
X1598979D1*
X1026821Y1029331D2*
X1048343D1*
X1052654Y1030757D1*
X1055506Y1033642D1*
X1056966Y1037953D1*
Y1040805D1*
X1055506Y1045116D1*
X1052655Y1048001D1*
X1048343Y1049427D1*
X1026822D1*
X1032592Y1058691D2*
X1031133Y1061576D1*
X1026855Y1065887D1*
X1056966D1*
X1025890Y714994D2*
X1024464Y717846D1*
X1021579Y720731D1*
X1018727Y722157D1*
X1012990D1*
X1010105Y720731D1*
X1007253Y717846D1*
X1005794Y714994D1*
X1004368Y710683D1*
Y703487D1*
X1005794Y699209D1*
X1007253Y696324D1*
X1010105Y693472D1*
X1012990Y692013D1*
X1018727D1*
X1021579Y693472D1*
X1024464Y696324D1*
X1025890Y699209D1*
X1055249Y722157D2*
Y692013D1*
X1035153Y722157D1*
Y692013D1*
X1067398Y722124D2*
X1083150D1*
X1074561Y710650D1*
X1078872D1*
X1081724Y709224D1*
X1083150Y707798D1*
X1084609Y703487D1*
Y700635D1*
X1083150Y696324D1*
X1080298Y693439D1*
X1075987Y692013D1*
X1071676D1*
X1067398Y693439D1*
X1065972Y694898D1*
X1064513Y697750D1*
X675121Y1159202D2*
D35*
Y1129058D1*
X686760D1*
X690640Y1130517D1*
X691924Y1131943D1*
X693207Y1134795D1*
Y1139106D1*
X691924Y1141991D1*
X690640Y1143417D1*
X686760Y1144843D1*
X690640Y1146302D1*
X691924Y1147728D1*
X693207Y1150580D1*
Y1153465D1*
X691924Y1156317D1*
X690640Y1157776D1*
X686760Y1159202D1*
X675121D1*
Y1144843D2*
X686760D1*
X712036Y1129058D2*
Y1159169D1*
X699113Y1139106D1*
X718482D1*
X724388Y1124084D2*
X748921D1*
X754826Y1159202D2*
Y1129058D1*
X675121Y1059202D2*
Y1029058D1*
X686760D1*
X690640Y1030517D1*
X691924Y1031943D1*
X693207Y1034795D1*
Y1039106D1*
X691924Y1041991D1*
X690640Y1043417D1*
X686760Y1044843D1*
X690640Y1046302D1*
X691924Y1047728D1*
X693207Y1050580D1*
Y1053465D1*
X691924Y1056317D1*
X690640Y1057776D1*
X686760Y1059202D1*
X675121D1*
Y1044843D2*
X686760D1*
X704276Y1029058D2*
X717199Y1059169D1*
X699113D1*
X723105Y1024084D2*
X747638D1*
X753543Y1059202D2*
Y1029058D1*
X673098Y961225D2*
Y931081D1*
X684738D1*
X688618Y932540D1*
X689901Y933966D1*
X691185Y936818D1*
Y941129D1*
X689901Y944014D1*
X688618Y945440D1*
X684738Y946866D1*
X688618Y948325D1*
X689901Y949751D1*
X691185Y952603D1*
Y955488D1*
X689901Y958340D1*
X688618Y959799D1*
X684738Y961225D1*
X673098D1*
Y946866D2*
X684738D1*
X710013Y931081D2*
Y961192D1*
X697090Y941129D1*
X716460D1*
X722366Y926106D2*
X746899D1*
X760564Y961225D2*
X757967Y959799D1*
X755401Y956914D1*
X754088Y954062D1*
X752804Y949751D1*
Y942555D1*
X754088Y938277D1*
X755401Y935392D1*
X757967Y932540D1*
X760564Y931081D1*
X765727D1*
X768294Y932540D1*
X770891Y935392D1*
X772174Y938277D1*
X773457Y942555D1*
Y949751D1*
X772174Y954062D1*
X770891Y956914D1*
X768294Y959799D1*
X765727Y961225D1*
X760564D1*
X675122Y859202D2*
Y829058D1*
X686762D1*
X690642Y830517D1*
X691925Y831943D1*
X693208Y834795D1*
Y839106D1*
X691925Y841991D1*
X690642Y843417D1*
X686762Y844843D1*
X690642Y846302D1*
X691925Y847728D1*
X693208Y850580D1*
Y853465D1*
X691925Y856317D1*
X690642Y857776D1*
X686762Y859202D1*
X675122D1*
Y844843D2*
X686762D1*
X704277Y829058D2*
X717200Y859169D1*
X699114D1*
X723106Y824084D2*
X747639D1*
X761304Y859202D2*
X758708Y857776D1*
X756141Y854891D1*
X754828Y852039D1*
X753544Y847728D1*
Y840532D1*
X754828Y836254D1*
X756141Y833369D1*
X758708Y830517D1*
X761304Y829058D1*
X766468D1*
X769034Y830517D1*
X771631Y833369D1*
X772914Y836254D1*
X774198Y840532D1*
Y847728D1*
X772914Y852039D1*
X771631Y854891D1*
X769034Y857776D1*
X766468Y859202D1*
X761304D1*
X1329967Y961171D2*
Y931027D1*
X1341607D1*
X1345487Y932486D1*
X1346770Y933912D1*
X1348054Y936764D1*
Y941075D1*
X1346770Y943960D1*
X1345487Y945386D1*
X1341607Y946812D1*
X1345487Y948271D1*
X1346770Y949697D1*
X1348054Y952549D1*
Y955434D1*
X1346770Y958286D1*
X1345487Y959745D1*
X1341607Y961171D1*
X1329967D1*
Y946812D2*
X1341607D1*
X1366882Y931027D2*
Y961138D1*
X1353959Y941075D1*
X1373329D1*
X1379234Y926053D2*
X1403767D1*
X1409673Y961171D2*
Y931027D1*
X1331252Y1061170D2*
Y1031026D1*
X1342892D1*
X1346772Y1032485D1*
X1348055Y1033911D1*
X1349338Y1036763D1*
Y1041074D1*
X1348055Y1043959D1*
X1346772Y1045385D1*
X1342892Y1046811D1*
X1346772Y1048270D1*
X1348055Y1049696D1*
X1349338Y1052547D1*
Y1055433D1*
X1348055Y1058284D1*
X1346772Y1059744D1*
X1342892Y1061170D1*
X1331252D1*
Y1046811D2*
X1342892D1*
X1360407Y1031026D2*
X1373330Y1061136D1*
X1355244D1*
X1379236Y1026051D2*
X1403769D1*
X1409674Y1061170D2*
Y1031026D1*
X1311339Y1159149D2*
Y1129005D1*
X1322978D1*
X1326858Y1130464D1*
X1328142Y1131890D1*
X1329425Y1134742D1*
Y1139053D1*
X1328142Y1141938D1*
X1326858Y1143364D1*
X1322978Y1144790D1*
X1326858Y1146249D1*
X1328142Y1147675D1*
X1329425Y1150526D1*
Y1153412D1*
X1328142Y1156263D1*
X1326858Y1157723D1*
X1322978Y1159149D1*
X1311339D1*
Y1144790D2*
X1322978D1*
X1348254Y1129005D2*
Y1159115D1*
X1335330Y1139053D1*
X1354700D1*
X1360606Y1124030D2*
X1385139D1*
X1398804Y1159149D2*
X1396208Y1157723D1*
X1393641Y1154838D1*
X1392328Y1151986D1*
X1391044Y1147675D1*
Y1140478D1*
X1392328Y1136201D1*
X1393641Y1133316D1*
X1396208Y1130464D1*
X1398804Y1129005D1*
X1403967D1*
X1406534Y1130464D1*
X1409131Y1133316D1*
X1410414Y1136201D1*
X1411697Y1140478D1*
Y1147675D1*
X1410414Y1151986D1*
X1409131Y1154838D1*
X1406534Y1157723D1*
X1403967Y1159149D1*
X1398804D1*
X1310598Y1261171D2*
Y1231027D1*
X1322238D1*
X1326118Y1232486D1*
X1327401Y1233912D1*
X1328685Y1236764D1*
Y1241075D1*
X1327401Y1243960D1*
X1326118Y1245386D1*
X1322238Y1246812D1*
X1326118Y1248271D1*
X1327401Y1249697D1*
X1328685Y1252549D1*
Y1255434D1*
X1327401Y1258286D1*
X1326118Y1259745D1*
X1322238Y1261171D1*
X1310598D1*
Y1246812D2*
X1322238D1*
X1339754Y1231027D2*
X1352677Y1261138D1*
X1334590D1*
X1358582Y1226053D2*
X1383115D1*
X1396781Y1261171D2*
X1394184Y1259745D1*
X1391617Y1256860D1*
X1390304Y1254008D1*
X1389021Y1249697D1*
Y1242501D1*
X1390304Y1238223D1*
X1391617Y1235338D1*
X1394184Y1232486D1*
X1396781Y1231027D1*
X1401944D1*
X1404511Y1232486D1*
X1407107Y1235338D1*
X1408391Y1238223D1*
X1409674Y1242501D1*
Y1249697D1*
X1408391Y1254008D1*
X1407107Y1256860D1*
X1404511Y1259745D1*
X1401944Y1261171D1*
X1396781D1*
X788995Y577735D2*
D36*
X787284Y581537D1*
X783822Y585384D1*
X780400Y587285D1*
X773515D1*
X770053Y585384D1*
X766631Y581537D1*
X764880Y577735D1*
X763169Y571987D1*
Y562392D1*
X764880Y556688D1*
X766631Y552841D1*
X770053Y549039D1*
X773515Y547093D1*
X780400D1*
X783822Y549039D1*
X787284Y552841D1*
X788995Y556688D1*
Y562392D1*
X780400D1*
X820984Y587285D2*
Y547093D1*
X796869Y587285D1*
Y547093D1*
X828858Y587285D2*
Y547093D1*
X840916D1*
X846089Y549039D1*
X849551Y552841D1*
X851262Y556688D1*
X852974Y562392D1*
Y571987D1*
X851262Y577735D1*
X849551Y581537D1*
X846089Y585384D1*
X840916Y587285D1*
X828858D1*
X1241147Y584389D2*
Y549945D1*
X1225668Y567145D2*
X1256667D1*
X1285194Y587241D2*
X1268003D1*
X1266292Y570041D1*
X1268003Y571942D1*
X1273176Y573888D1*
X1278310D1*
X1283483Y571942D1*
X1286945Y568140D1*
X1288656Y562392D1*
Y558589D1*
X1286945Y552841D1*
X1283483Y548994D1*
X1278310Y547093D1*
X1273176D1*
X1268003Y548994D1*
X1266292Y550940D1*
X1264541Y554742D1*
X1296530Y587285D2*
X1310299Y547093D1*
X1324068Y587285D1*
X693689Y1254008D2*
D35*
X692405Y1256860D1*
X689809Y1259745D1*
X687242Y1261171D1*
X682079D1*
X679482Y1259745D1*
X676915Y1256860D1*
X675602Y1254008D1*
X674319Y1249697D1*
Y1242501D1*
X675602Y1238223D1*
X676915Y1235338D1*
X679482Y1232486D1*
X682079Y1231027D1*
X687242D1*
X689809Y1232486D1*
X692405Y1235338D1*
X693689Y1238223D1*
Y1242501D1*
X687242D1*
X717681Y1261171D2*
Y1231027D1*
X699594Y1261171D1*
Y1231027D1*
X723586Y1261171D2*
Y1231027D1*
X732629D1*
X736509Y1232486D1*
X739106Y1235338D1*
X740389Y1238223D1*
X741672Y1242501D1*
Y1249697D1*
X740389Y1254008D1*
X739106Y1256860D1*
X736509Y1259745D1*
X732629Y1261171D1*
X723586D1*
X1362492Y852039D2*
X1361208Y854891D1*
X1358612Y857776D1*
X1356045Y859202D1*
X1350882D1*
X1348285Y857776D1*
X1345719Y854891D1*
X1344405Y852039D1*
X1343122Y847728D1*
Y840532D1*
X1344405Y836254D1*
X1345719Y833369D1*
X1348285Y830517D1*
X1350882Y829058D1*
X1356045D1*
X1358612Y830517D1*
X1361208Y833369D1*
X1362492Y836254D1*
Y840532D1*
X1356045D1*
X1386484Y859202D2*
Y829058D1*
X1368397Y859202D1*
Y829058D1*
X1392389Y859202D2*
Y829058D1*
X1401432D1*
X1405312Y830517D1*
X1407909Y833369D1*
X1409192Y836254D1*
X1410476Y840532D1*
Y847728D1*
X1409192Y852039D1*
X1407909Y854891D1*
X1405312Y857776D1*
X1401432Y859202D1*
X1392389D1*
X681575Y1445060D2*
Y1446486D1*
X683713Y1449371D1*
X685852Y1450797D1*
X690180Y1452223D1*
X698785D1*
X703063Y1450797D1*
X705202Y1449371D1*
X707391Y1446486D1*
Y1443634D1*
X705202Y1440749D1*
X700924Y1436471D1*
X679386Y1422112D1*
X709530D1*
X732305Y1452223D2*
X725839Y1450797D1*
X721511Y1446486D1*
X719372Y1439323D1*
Y1435012D1*
X721511Y1427849D1*
X725839Y1423538D1*
X732305Y1422112D1*
X736583D1*
X743050Y1423538D1*
X747328Y1427849D1*
X749516Y1435012D1*
Y1439323D1*
X747328Y1446486D1*
X743050Y1450797D1*
X736583Y1452223D1*
X732305D1*
X747328Y1446486D2*
X721511Y1427849D1*
X759359Y1446486D2*
X763686Y1447945D1*
X770153Y1452223D1*
Y1422112D1*
X808001Y1442208D2*
X805812Y1437897D1*
X801534Y1435012D1*
X795068Y1433586D1*
X792929D1*
X786462Y1435012D1*
X782184Y1437897D1*
X779996Y1442208D1*
Y1443634D1*
X782184Y1447945D1*
X786462Y1450797D1*
X792929Y1452223D1*
X795068D1*
X801534Y1450797D1*
X805812Y1447945D1*
X808001Y1442208D1*
Y1435012D1*
X805812Y1427849D1*
X801534Y1423538D1*
X795068Y1422112D1*
X790790D1*
X784323Y1423538D1*
X782184Y1426423D1*
X857531Y1437168D2*
X882402D1*
X966405Y1422112D2*
X949144Y1452256D1*
X931933Y1422112D1*
X938400Y1432160D2*
X959938D1*
X976247Y1437897D2*
X995597D1*
X1002064Y1439356D1*
X1004252Y1440782D1*
X1006391Y1443634D1*
Y1446519D1*
X1004252Y1449371D1*
X1002064Y1450830D1*
X995597Y1452256D1*
X976247D1*
Y1422112D1*
X991319Y1437897D2*
X1006391Y1422112D1*
X1031306Y1452256D2*
Y1422112D1*
X1016234Y1452256D2*
X1046378D1*
X1056220D2*
Y1422112D1*
X1086364Y1452256D2*
Y1422112D1*
X1056220Y1437897D2*
X1086364D1*
X1096207D2*
X1115557D1*
X1122023Y1439356D1*
X1124212Y1440782D1*
X1126351Y1443634D1*
Y1446519D1*
X1124212Y1449371D1*
X1122023Y1450830D1*
X1115557Y1452256D1*
X1096207D1*
Y1422112D1*
X1111279Y1437897D2*
X1126351Y1422112D1*
X1136193Y1452256D2*
Y1422112D1*
X1180458D2*
Y1452256D1*
X1163247Y1422112D1*
X1146036Y1452256D1*
Y1422112D1*
X1190300Y1452256D2*
Y1430734D1*
X1192439Y1426423D1*
X1196767Y1423571D1*
X1203233Y1422112D1*
X1207511D1*
X1213978Y1423571D1*
X1218305Y1426423D1*
X1220444Y1430734D1*
Y1452256D1*
X1260431Y1447945D2*
X1256153Y1450830D1*
X1249686Y1452256D1*
X1241081D1*
X1234614Y1450830D1*
X1230287Y1447945D1*
Y1445093D1*
X1232475Y1442208D1*
X1234614Y1440782D1*
X1238892Y1439356D1*
X1251825Y1436471D1*
X1256153Y1435045D1*
X1258292Y1433586D1*
X1260431Y1430734D1*
Y1426423D1*
X1256153Y1423571D1*
X1249686Y1422112D1*
X1241081D1*
X1234614Y1423571D1*
X1230287Y1426423D1*
X1272412Y1424997D2*
X1270273Y1423538D1*
X1272412Y1422112D1*
X1274601Y1423538D1*
X1272412Y1424997D1*
X1316726Y1445093D2*
X1314587Y1447945D1*
X1310260Y1450830D1*
X1305982Y1452256D1*
X1297376D1*
X1293049Y1450830D1*
X1288771Y1447945D1*
X1286582Y1445093D1*
X1284443Y1440782D1*
Y1433586D1*
X1286582Y1429308D1*
X1288771Y1426423D1*
X1293049Y1423571D1*
X1297376Y1422112D1*
X1305982D1*
X1310260Y1423571D1*
X1314587Y1426423D1*
X1316726Y1429308D1*
X1339502Y1452256D2*
X1335174Y1450830D1*
X1330896Y1447945D1*
X1328708Y1445093D1*
X1326569Y1440782D1*
Y1433586D1*
X1328708Y1429308D1*
X1330896Y1426423D1*
X1335174Y1423571D1*
X1339502Y1422112D1*
X1348107D1*
X1352385Y1423571D1*
X1356713Y1426423D1*
X1358852Y1429308D1*
X1360991Y1433586D1*
Y1440782D1*
X1358852Y1445093D1*
X1356713Y1447945D1*
X1352385Y1450830D1*
X1348107Y1452256D1*
X1339502D1*
X1405255Y1422112D2*
Y1452256D1*
X1388044Y1422112D1*
X1370833Y1452256D1*
Y1422112D1*
X897528Y1571535D2*
D38*
Y1501199D1*
X921670D1*
X929717Y1504603D1*
X932379Y1507931D1*
X935041Y1514585D1*
Y1524644D1*
X932379Y1531376D1*
X929717Y1534703D1*
X921670Y1538030D1*
X929717Y1541435D1*
X932379Y1544762D1*
X935041Y1551417D1*
Y1558148D1*
X932379Y1564803D1*
X929717Y1568207D1*
X921670Y1571535D1*
X897528D1*
Y1538030D2*
X921670D1*
X957998Y1501199D2*
X984802Y1571457D1*
X947289D1*
X1089276Y1501199D2*
Y1571535D1*
X1067858Y1501199D1*
X1046440Y1571535D1*
Y1501199D1*
X1144423D2*
X1122943Y1571535D1*
X1101525Y1501199D1*
X1109572Y1524644D2*
X1136375D1*
X1194184Y1571535D2*
Y1501199D1*
X1156671Y1571535D1*
Y1501199D1*
X1249330D2*
X1227850Y1571535D1*
X1206432Y1501199D1*
X1214479Y1524644D2*
X1241283D1*
X1301753Y1554821D2*
X1299091Y1561476D1*
X1293706Y1568207D1*
X1288382Y1571535D1*
X1277673D1*
X1272288Y1568207D1*
X1266964Y1561476D1*
X1264240Y1554821D1*
X1261579Y1544762D1*
Y1527971D1*
X1264240Y1517990D1*
X1266964Y1511258D1*
X1272288Y1504603D1*
X1277673Y1501199D1*
X1288382D1*
X1293706Y1504603D1*
X1299091Y1511258D1*
X1301753Y1517990D1*
Y1527971D1*
X1288382D1*
X1348790Y1571535D2*
X1314001D1*
Y1501199D1*
X1348790D1*
X1314001Y1538030D2*
X1335419D1*
X1361039D2*
X1385119D1*
X1393166Y1541435D1*
X1395889Y1544762D1*
X1398551Y1551417D1*
Y1558148D1*
X1395889Y1564803D1*
X1393166Y1568207D1*
X1385119Y1571535D1*
X1361039D1*
Y1501199D1*
X1379795Y1538030D2*
X1398551Y1501199D1*
M02*
